<svg xmlns="http://www.w3.org/2000/svg" width="95" height="103" viewBox="0 0 95 103" fill="none">
  <path d="M3.00754 1.8445C2.92166 1.02053 2.18408 0.4222 1.36012 0.508082C0.536158 0.593964 -0.0621751 1.33154 0.0237072 2.1555L3.00754 1.8445ZM93.743 93.5526C94.3828 93.0263 94.4748 92.0811 93.9485 91.4413L85.3719 81.0157C84.8456 80.3759 83.9003 80.2839 83.2606 80.8102C82.6208 81.3365 82.5288 82.2818 83.0551 82.9216L90.6787 92.1888L81.4115 99.8124C80.7718 100.339 80.6798 101.284 81.2061 101.924C81.7324 102.563 82.6776 102.655 83.3174 102.129L93.743 93.5526ZM0.0237072 2.1555C0.394882 5.71659 0.808637 9.14501 1.27022 12.4455L4.2413 12.03C3.7851 8.76797 3.37549 5.37462 3.00754 1.8445L0.0237072 2.1555ZM4.022 28.0003C5.65093 35.3799 7.6534 41.9901 10.122 47.9058L12.8906 46.7505C10.5049 41.0333 8.55088 34.5995 6.95148 27.3536L4.022 28.0003ZM17.7646 61.9334C21.8844 67.7662 26.8139 72.6335 32.7027 76.6867L34.4036 74.2155C28.8057 70.3626 24.1302 65.7457 20.215 60.2026L17.7646 61.9334ZM46.8139 84.1696C52.7544 86.5764 59.3824 88.5169 66.7723 90.0836L67.3945 87.1488C60.1369 85.6102 53.6837 83.716 47.9405 81.3891L46.8139 84.1696ZM82.3469 92.7137C85.651 93.1511 89.0821 93.5405 92.6448 93.8872L92.9353 90.9013C89.4032 90.5576 86.0067 90.172 82.7406 89.7396L82.3469 92.7137Z" fill="url(#paint0_linear_353_5968)"/>
  <defs>
    <linearGradient id="paint0_linear_353_5968" x1="-9.43108" y1="13.0533" x2="83.1483" y2="102.19" gradientUnits="userSpaceOnUse">
      <stop stop-color="#612ACE"/>
      <stop offset="0.497917" stop-color="#FF5614"/>
      <stop offset="1" stop-color="#7000FF"/>
    </linearGradient>
  </defs>
</svg>