<svg xmlns="http://www.w3.org/2000/svg" width="106" height="92" viewBox="0 0 106 92" fill="none">
  <path d="M1.90294 3.84549C1.07625 3.79188 0.449539 3.07826 0.503144 2.25157C0.556748 1.42488 1.27037 0.798172 2.09706 0.851776L1.90294 3.84549ZM97.0882 90.9263C96.5873 91.5862 95.6463 91.7151 94.9865 91.2142L84.2336 83.0518C83.5737 82.5509 83.4448 81.6099 83.9457 80.9501C84.4466 80.2902 85.3876 80.1614 86.0474 80.6622L95.6056 87.9177L102.861 78.3596C103.362 77.6997 104.303 77.5708 104.963 78.0717C105.623 78.5726 105.751 79.5136 105.251 80.1734L97.0882 90.9263ZM2.09706 0.851776C5.66993 1.08345 9.11191 1.36286 12.4279 1.69505L12.1289 4.68011C8.85152 4.35179 5.44475 4.07515 1.90294 3.84549L2.09706 0.851776ZM28.0784 3.83664C35.5161 5.17582 42.1994 6.91835 48.2072 9.15374L47.161 11.9654C41.3549 9.80504 34.8496 8.10407 27.5468 6.78916L28.0784 3.83664ZM62.5228 16.2422C68.5122 20.1308 73.5686 24.8662 77.8488 30.5921L75.446 32.3883C71.3772 26.9453 66.5811 22.4538 60.8892 18.7584L62.5228 16.2422ZM85.8777 44.4C88.5149 50.2418 90.713 56.7889 92.5674 64.1119L89.6592 64.8483C87.838 57.6564 85.693 51.2822 83.1434 45.6343L85.8777 44.4ZM95.8044 79.5717C96.3706 82.8562 96.8938 86.2695 97.3795 89.8159L94.4073 90.2229C93.9258 86.7069 93.4077 83.3281 92.848 80.0814L95.8044 79.5717Z" fill="url(#paint0_linear_353_5969)"/>
  <defs>
    <linearGradient id="paint0_linear_353_5969" x1="12.6169" y1="-9.02182" x2="105.305" y2="80.0021" gradientUnits="userSpaceOnUse">
      <stop stop-color="#612ACE"/>
      <stop offset="0.497917" stop-color="#FF5614"/>
      <stop offset="1" stop-color="#7000FF"/>
    </linearGradient>
  </defs>
</svg>